<?xml version="1.0" standalone="no"?>
<!DOCTYPE svg PUBLIC "-//W3C//DTD SVG 20010904//EN"
 "http://www.w3.org/TR/2001/REC-SVG-20010904/DTD/svg10.dtd">
<svg version="1.0" xmlns="http://www.w3.org/2000/svg"
 width="1363.331542pt" height="1517.831255pt" viewBox="0 0 1363.331542 1517.831255"
 preserveAspectRatio="xMidYMid meet">

<g transform="translate(-317.501809,1762.831255) scale(0.100000,-0.100000)"
fill="#000000" stroke="none">
<path d="M5400 17614 c-299 -46 -534 -167 -756 -388 -325 -324 -580 -816 -731
-1406 -82 -324 -66 -618 51 -924 71 -187 285 -530 486 -779 33 -41 60 -82 60
-91 0 -10 -53 -76 -118 -149 -118 -132 -161 -184 -215 -261 -58 -83 -217 -325
-217 -330 0 -3 -17 -34 -38 -68 -21 -35 -76 -137 -121 -228 -46 -91 -87 -169
-92 -174 -15 -16 -10 -26 11 -26 11 0 53 23 93 50 122 83 130 67 37 -69 -76
-110 -140 -231 -214 -406 -26 -60 -51 -119 -56 -130 -60 -133 -158 -394 -182
-485 -11 -41 -24 -81 -30 -88 -7 -8 -8 -16 -1 -23 6 -6 32 11 74 47 62 54 217
173 271 208 14 9 28 13 31 9 3 -4 -27 -73 -67 -153 -122 -246 -246 -575 -316
-835 -4 -16 -22 -84 -40 -150 -40 -151 -75 -315 -101 -475 -11 -69 -26 -165
-34 -214 -15 -91 -14 -106 10 -106 15 0 152 124 262 238 51 52 77 73 88 68 10
-3 14 -13 11 -23 -6 -19 -16 -79 -45 -263 -36 -223 -46 -386 -46 -750 0 -239
4 -384 13 -445 26 -178 43 -282 67 -401 14 -67 25 -133 25 -148 0 -19 5 -26
18 -26 22 0 64 86 143 297 30 79 60 143 67 143 8 0 12 -16 12 -47 0 -100 31
-301 64 -425 92 -333 195 -610 311 -833 34 -66 159 -276 277 -465 287 -460
346 -550 362 -550 20 0 111 203 162 362 26 79 42 76 84 -14 71 -155 165 -338
270 -523 48 -87 140 -230 280 -440 81 -121 177 -267 215 -325 172 -265 218
-331 233 -328 10 2 26 37 44 93 118 374 121 381 138 370 5 -3 43 -61 85 -130
107 -177 307 -473 505 -748 79 -111 289 -421 326 -483 6 -10 17 -15 26 -12 19
8 67 138 116 315 20 73 42 133 47 133 6 0 16 -15 23 -34 15 -41 182 -291 268
-402 83 -106 207 -232 238 -240 34 -8 43 0 50 43 10 56 40 153 48 153 4 0 46
-46 93 -102 92 -109 323 -348 390 -403 82 -68 122 -54 112 40 -3 30 -1 57 4
60 4 3 37 -20 71 -52 77 -71 271 -233 393 -328 375 -290 620 -519 799 -745 83
-104 127 -150 146 -150 20 0 62 45 182 195 205 256 441 470 933 845 83 63 179
143 215 177 66 65 88 70 69 16 -5 -17 -9 -48 -7 -70 7 -82 81 -43 233 124 49
54 122 132 161 173 39 41 102 111 140 155 37 44 73 80 78 80 13 0 34 -79 42
-157 5 -55 10 -68 24 -68 51 0 194 137 320 305 64 86 199 294 234 363 20 39
34 41 42 4 29 -130 113 -389 134 -415 17 -20 18 -19 87 74 38 52 129 182 202
289 72 107 163 240 202 295 159 226 296 439 408 633 24 40 48 71 54 69 14 -4
44 -80 107 -269 54 -163 65 -188 83 -188 12 0 120 161 212 315 27 44 108 170
180 280 244 369 356 557 514 865 60 118 114 215 118 215 12 0 49 -83 98 -223
65 -179 75 -202 96 -202 24 0 53 40 139 189 39 68 123 207 187 310 263 422
317 522 426 792 102 252 175 485 221 704 13 59 46 290 46 318 0 5 5 7 11 5 11
-4 25 -38 110 -282 27 -76 51 -141 53 -144 24 -24 60 70 110 283 73 315 80
389 80 810 1 382 -4 455 -46 700 -29 165 -37 238 -26 250 5 6 68 -50 162 -144
193 -193 202 -194 170 -15 -9 49 -19 114 -24 144 -23 168 -136 630 -219 899
-44 142 -111 324 -157 426 -64 144 -133 310 -129 313 14 14 112 -53 279 -194
51 -42 82 -62 88 -56 6 6 6 16 0 28 -5 11 -24 64 -42 119 -78 243 -139 393
-255 625 -86 173 -119 232 -224 404 -24 37 -39 72 -34 77 4 4 47 -16 96 -46
48 -30 89 -55 92 -55 27 0 -69 205 -188 400 -187 307 -357 534 -571 765 -25
27 -46 53 -46 58 0 4 40 55 90 112 275 320 471 660 547 945 48 182 60 424 29
594 -110 609 -497 1341 -866 1639 -237 191 -443 276 -760 312 -399 47 -759
-65 -1105 -343 -44 -35 -166 -151 -271 -258 -143 -146 -197 -194 -215 -194
-13 0 -64 14 -114 30 -127 43 -139 46 -245 65 -181 31 -206 34 -338 41 -74 4
-135 11 -139 17 -3 6 22 37 56 69 l62 58 -26 10 c-30 11 -203 42 -350 62 -133
17 -666 18 -790 0 -290 -42 -562 -112 -825 -212 -228 -88 -216 -86 -318 -49
-426 154 -619 205 -977 256 -149 21 -582 24 -725 5 -52 -7 -131 -17 -175 -23
-224 -29 -249 -40 -187 -83 60 -41 106 -92 91 -101 -6 -5 -78 -12 -158 -16
-223 -12 -434 -50 -648 -114 -12 -4 -29 -3 -38 3 -10 5 -99 90 -199 189 -187
186 -267 254 -396 341 -180 120 -426 217 -623 246 -127 19 -328 19 -447 0z
m3235 -730 c244 -27 386 -62 580 -143 263 -110 541 -303 718 -499 21 -23 43
-42 50 -42 7 0 55 43 107 96 117 120 210 193 364 291 226 143 436 226 715 283
131 26 176 30 338 32 148 2 188 0 188 -10 0 -7 -21 -34 -47 -60 -58 -59 -198
-241 -198 -259 0 -16 0 -16 69 2 31 8 112 19 181 24 225 19 795 -23 795 -58 0
-16 3 -14 -144 -85 -62 -31 -150 -82 -194 -113 -93 -67 -250 -218 -244 -236 2
-8 58 -14 188 -18 101 -4 214 -12 251 -18 70 -11 261 -55 313 -72 188 -59 269
-89 425 -154 217 -91 378 -168 490 -235 30 -18 65 -36 78 -41 50 -19 6 -26
-165 -27 -164 0 -286 -14 -322 -37 -18 -10 -13 -35 7 -35 19 0 244 -84 407
-152 133 -56 337 -157 409 -203 155 -99 401 -343 373 -371 -2 -3 -53 12 -113
31 -218 72 -377 106 -589 125 -60 5 -138 13 -172 16 -35 4 -63 3 -63 -1 0 -12
32 -45 43 -45 37 0 394 -206 527 -304 83 -61 392 -318 505 -419 156 -141 533
-521 627 -633 112 -133 235 -306 347 -487 111 -179 119 -209 38 -143 -85 69
-290 186 -389 221 -132 47 -458 153 -485 158 -43 8 -42 -6 4 -40 164 -123 436
-380 606 -575 120 -137 256 -325 402 -558 52 -82 172 -333 228 -475 119 -304
170 -505 222 -885 9 -63 20 -139 25 -169 13 -69 13 -111 0 -111 -5 0 -34 16
-64 35 -30 19 -57 35 -59 35 -3 0 -42 21 -88 47 -89 49 -319 165 -404 203 -27
13 -77 35 -110 50 -33 15 -109 48 -170 74 -60 26 -123 53 -140 60 -96 42 -226
87 -235 81 -6 -4 26 -47 78 -103 213 -233 340 -399 462 -602 55 -93 180 -331
180 -344 0 -3 11 -29 24 -58 20 -45 54 -136 86 -228 65 -185 110 -429 110
-596 0 -257 -97 -558 -332 -1029 -89 -179 -406 -641 -425 -621 -3 3 -7 67 -8
143 -2 111 -7 156 -28 233 -32 120 -65 220 -110 335 -90 232 -268 584 -379
750 -51 75 -46 71 -58 59 -7 -7 3 -50 29 -130 52 -160 66 -257 66 -454 0 -278
-48 -476 -181 -743 -57 -115 -68 -133 -178 -292 -155 -224 -352 -447 -615
-695 -290 -273 -320 -300 -331 -300 -14 0 -8 31 32 165 45 153 78 245 105 299
42 82 26 84 -93 10 -387 -238 -630 -443 -929 -779 -86 -98 -330 -344 -382
-387 l-33 -26 0 -171 c0 -302 -51 -528 -171 -751 -104 -193 -295 -386 -604
-612 -236 -172 -420 -271 -640 -343 -303 -99 -662 -111 -975 -32 -176 44 -311
105 -514 229 -376 230 -645 482 -803 753 -134 230 -181 401 -204 745 l-12 175
-177 180 c-97 99 -231 239 -297 310 -168 181 -295 301 -478 446 -125 99 -361
254 -433 284 -40 18 -60 8 -43 -21 6 -11 43 -100 81 -199 74 -187 86 -218 101
-247 23 -46 -7 -36 -66 20 -27 26 -108 97 -180 157 -343 291 -619 603 -817
926 -200 326 -268 560 -268 923 0 201 21 318 90 494 58 151 18 117 -120 -100
-123 -195 -316 -584 -385 -778 -90 -255 -105 -321 -105 -468 0 -50 -4 -93 -9
-97 -9 -5 -70 69 -197 239 -104 139 -281 475 -373 707 -167 426 -189 694 -91
1115 22 90 98 317 134 399 8 17 31 71 52 120 118 281 356 624 620 895 46 47
80 88 75 93 -7 7 -60 -8 -116 -32 -11 -4 -119 -50 -240 -102 -392 -166 -698
-314 -835 -404 -46 -31 -90 -53 -98 -50 -15 6 -13 31 19 255 24 176 75 433
113 579 70 264 233 639 383 878 277 443 560 759 920 1030 44 34 70 60 65 65
-16 16 -274 -53 -477 -129 -105 -39 -279 -128 -377 -193 -48 -33 -90 -55 -93
-50 -20 32 276 466 470 690 170 196 582 592 815 782 25 20 65 53 89 72 197
164 485 339 735 450 80 35 74 51 -16 42 -40 -4 -131 -11 -203 -17 -141 -10
-268 -30 -355 -55 -30 -8 -95 -26 -145 -39 -49 -13 -106 -30 -126 -39 -20 -8
-39 -12 -43 -9 -17 17 102 153 224 255 109 91 192 143 340 215 143 69 146 70
390 167 206 81 249 106 203 119 -68 20 -152 28 -308 30 -184 2 -220 11 -148
36 45 15 109 45 338 156 350 171 632 271 895 318 188 34 221 38 363 44 81 3
150 9 152 13 7 11 -117 126 -227 210 -62 48 -135 92 -218 131 -171 82 -174 83
-174 94 -1 17 134 33 419 51 293 18 497 10 598 -23 35 -11 52 -12 59 -5 15 15
-51 101 -173 224 -67 68 -92 101 -85 108 13 13 168 6 361 -16z"/>
<path d="M10605 13626 c-58 -98 -139 -311 -171 -445 -36 -153 -12 -385 53
-520 55 -113 228 -247 423 -326 41 -17 81 -34 88 -38 17 -12 15 -27 -5 -27
-33 0 -149 -33 -193 -55 -69 -35 -168 -111 -242 -186 -104 -105 -92 -120 52
-68 214 78 349 103 518 97 92 -4 134 -11 197 -32 114 -38 272 -120 326 -169
25 -23 91 -83 145 -132 172 -156 253 -204 387 -226 148 -25 252 15 383 147
130 131 198 287 219 502 5 53 12 75 24 82 17 8 258 -2 369 -16 41 -5 52 -4 52
7 0 37 -243 298 -440 473 -203 181 -351 177 -628 -15 -242 -168 -475 -311
-555 -340 -92 -34 -191 -24 -418 39 -252 71 -343 118 -465 241 -81 81 -129
165 -161 278 -21 76 -24 322 -4 408 19 81 45 185 70 272 12 40 21 77 21 83 0
23 -21 7 -45 -34z m1728 -1226 c46 -40 62 -96 46 -164 -35 -151 -113 -215
-282 -232 -78 -8 -137 8 -182 47 -56 49 -52 55 75 95 129 41 202 117 224 236
4 20 12 39 19 41 32 14 68 5 100 -23z"/>
<path d="M9335 13643 c24 -63 67 -204 90 -297 48 -199 34 -426 -36 -586 -65
-146 -247 -285 -465 -355 -188 -60 -335 -89 -424 -83 -110 8 -227 73 -655 362
-220 148 -335 179 -456 124 -107 -49 -314 -236 -523 -472 -111 -127 -111 -127
79 -110 163 15 255 17 272 6 7 -4 15 -43 18 -92 15 -213 80 -365 213 -498 103
-103 212 -152 337 -152 181 1 291 59 505 266 165 159 256 217 435 275 158 52
437 20 711 -81 59 -22 94 -22 94 -1 0 36 -220 216 -320 263 -47 22 -79 34
-178 64 -28 8 -3 29 79 63 143 61 263 139 337 220 107 118 158 362 118 571
-32 163 -63 253 -138 399 -50 97 -73 131 -91 131 -5 0 -6 -8 -2 -17z m-1571
-1236 c10 -7 36 -51 59 -97 26 -52 55 -94 77 -112 35 -27 187 -88 222 -88 30
0 20 -28 -19 -53 -103 -64 -187 -71 -293 -25 -72 33 -115 70 -150 132 -24 41
-30 63 -30 114 0 72 18 108 65 128 38 17 47 17 69 1z"/>
<path d="M8540 11764 c-53 -50 -180 -212 -180 -231 0 -3 -6 -14 -14 -22 -24
-27 -139 -260 -194 -391 -112 -271 -174 -443 -272 -745 -18 -55 -88 -339 -120
-480 -17 -77 -35 -158 -40 -180 -6 -22 -26 -125 -45 -230 -29 -161 -49 -268
-81 -440 -21 -114 -44 -338 -44 -434 0 -340 133 -713 330 -925 52 -57 124
-106 156 -106 39 0 46 -20 64 -170 5 -47 17 -137 26 -200 24 -176 31 -236 43
-345 6 -55 16 -138 21 -185 5 -47 15 -197 20 -335 19 -441 45 -853 60 -945 19
-110 41 -200 78 -315 137 -429 372 -663 814 -810 267 -88 646 -143 923 -132
350 14 581 59 878 169 182 68 269 120 391 237 167 161 250 317 321 606 58 236
78 420 95 885 21 546 43 791 105 1165 13 77 26 176 30 220 10 118 11 121 63
146 60 28 183 153 246 247 118 179 188 371 222 611 35 256 3 560 -140 1311
-17 88 -80 368 -97 425 -6 22 -17 60 -24 85 -33 118 -50 171 -76 250 -26 78
-45 131 -127 355 -77 210 -236 546 -346 733 -71 119 -185 237 -208 214 -5 -5
17 -55 47 -113 113 -218 260 -588 411 -1035 58 -173 76 -233 105 -344 14 -52
69 -307 79 -365 5 -27 18 -99 29 -160 12 -60 33 -171 47 -245 14 -74 29 -154
35 -177 5 -22 14 -72 19 -110 75 -492 80 -548 59 -731 -13 -116 -36 -209 -78
-317 -83 -215 -213 -352 -399 -419 -62 -22 -90 -26 -179 -26 -90 0 -118 4
-192 29 -75 25 -234 93 -421 178 -264 121 -620 212 -830 213 -74 0 -107 7
-113 23 -5 15 18 192 34 260 39 166 75 233 184 343 100 101 173 158 415 324
337 231 476 352 572 500 139 212 208 517 153 675 -43 123 -150 240 -278 303
-250 122 -473 148 -833 96 -154 -22 -204 -25 -354 -21 -97 2 -244 14 -330 26
-192 26 -311 27 -437 2 -312 -60 -528 -227 -574 -443 -29 -135 25 -390 121
-564 101 -185 219 -299 565 -544 404 -288 539 -406 605 -531 53 -101 103 -354
81 -411 -11 -28 -7 -28 -213 -43 -107 -8 -314 -52 -458 -98 -49 -16 -249 -98
-351 -145 -359 -164 -395 -176 -539 -176 -137 -1 -176 11 -297 91 -184 120
-286 310 -328 608 -27 189 -18 319 51 730 20 120 43 249 55 310 37 193 71 366
79 400 5 22 16 72 25 110 103 459 208 807 383 1260 27 72 66 165 86 208 20 43
36 80 36 83 0 2 30 57 66 121 36 65 66 122 67 127 5 26 -28 10 -83 -40z m857
-1604 c147 -19 274 -103 314 -208 72 -192 47 -388 -63 -488 -43 -38 -50 -40
-68 -19 -14 17 -7 49 36 160 23 59 27 86 27 170 1 121 -22 186 -86 240 -116
99 -268 77 -332 -49 -32 -63 -59 -96 -80 -96 -27 0 -79 39 -107 81 -52 77 -33
145 51 189 46 24 201 34 308 20z m1363 0 c118 -13 204 -41 227 -76 35 -54 -12
-156 -92 -198 -40 -22 -61 -16 -80 20 -38 73 -72 119 -107 144 -37 27 -48 30
-117 30 -92 0 -144 -21 -189 -76 -43 -52 -62 -114 -62 -199 0 -81 5 -99 63
-238 l41 -98 -21 -21 c-20 -19 -22 -20 -49 -3 -39 22 -77 79 -99 145 -15 43
-19 86 -19 195 0 121 3 146 21 186 53 116 140 168 313 189 36 4 66 8 66 9 1 0
48 -4 104 -9z m-340 -2235 c238 -39 351 -79 675 -235 88 -42 186 -88 218 -101
l59 -23 -7 -46 c-7 -49 -36 -196 -59 -300 -38 -178 -89 -404 -107 -478 -10
-45 -31 -139 -44 -210 -29 -145 -33 -162 -44 -162 -19 0 -82 225 -151 535 -90
403 -123 530 -172 658 -50 132 -75 162 -125 154 -60 -10 -92 -53 -129 -169
-10 -32 -22 -58 -28 -58 -6 0 -36 34 -66 76 -84 117 -149 194 -164 194 -7 0
-24 -13 -39 -29 -14 -16 -39 -32 -55 -36 -38 -8 -103 9 -153 41 -21 13 -43 24
-48 24 -5 0 -44 -25 -86 -55 -43 -30 -81 -55 -86 -55 -11 0 -32 23 -70 78 -16
23 -32 42 -37 42 -24 0 -137 -121 -182 -195 -28 -47 -55 -85 -60 -85 -16 0
-27 33 -39 109 -17 106 -20 111 -90 111 l-59 0 -27 -47 c-50 -91 -109 -295
-185 -638 -16 -77 -34 -158 -40 -180 -5 -22 -16 -74 -25 -115 -29 -135 -33
-154 -61 -260 -15 -58 -30 -109 -34 -114 -12 -13 -27 22 -49 115 -67 288 -75
323 -127 564 -8 39 -19 95 -24 125 -5 30 -16 89 -25 130 -34 163 -45 243 -34
256 14 17 324 172 424 213 44 18 89 36 100 40 144 60 314 111 409 122 246 30
678 32 846 4z m-1800 -1707 c48 -52 165 -331 185 -440 10 -55 31 -47 64 25 27
60 55 120 100 219 11 26 25 49 31 53 15 9 35 -32 83 -170 44 -128 79 -221 97
-260 5 -11 31 -70 58 -131 47 -108 158 -300 187 -324 12 -10 18 -4 33 32 11
23 28 70 38 102 11 33 24 61 29 63 6 2 28 -35 49 -81 21 -47 53 -102 71 -123
32 -37 33 -38 53 -20 23 21 81 137 97 195 12 42 34 23 76 -65 22 -49 50 -98
61 -110 21 -22 22 -22 41 -5 24 21 49 71 72 142 9 30 23 61 31 69 20 22 47 -8
79 -87 48 -120 54 -132 68 -132 30 0 69 45 109 124 51 102 57 110 74 95 8 -6
14 -21 14 -33 1 -59 69 -206 95 -206 17 0 190 261 244 367 54 107 121 275 166
416 36 114 57 153 75 142 13 -8 75 -142 117 -252 20 -51 41 -93 48 -93 8 0 23
30 35 68 12 37 28 81 35 97 7 17 27 64 43 105 17 41 42 99 56 127 15 29 26 57
26 61 0 5 11 19 25 32 42 39 48 17 30 -106 -9 -60 -20 -125 -25 -144 -5 -19
-23 -93 -40 -165 -17 -71 -37 -152 -44 -180 -110 -393 -139 -461 -236 -548
-84 -75 -136 -94 -275 -102 -66 -3 -163 -9 -215 -12 -52 -3 -324 -6 -605 -7
-704 -1 -902 14 -999 78 -38 24 -110 119 -145 191 -30 63 -99 259 -127 363
-81 304 -134 543 -134 606 0 52 17 59 50 24z m2780 -1165 c0 -48 -68 -171
-129 -232 -96 -96 -211 -140 -506 -195 -213 -40 -513 -66 -750 -66 -344 1
-756 49 -975 114 -180 54 -311 148 -365 262 -27 56 -36 115 -20 120 6 2 51
-31 102 -74 162 -137 250 -169 530 -192 65 -6 165 -14 223 -20 289 -27 867
-22 1155 10 293 33 357 46 449 92 62 30 163 108 230 177 42 43 56 44 56 4z"/>
<path d="M9555 11250 c-139 -20 -301 -87 -452 -186 -123 -82 -164 -155 -56
-101 56 28 166 68 238 87 28 8 126 15 223 18 139 3 193 0 270 -14 111 -21 317
-23 397 -5 28 6 129 14 226 18 226 8 309 -8 501 -96 126 -58 143 -37 36 42
-168 124 -300 190 -443 222 -97 21 -265 23 -417 4 -85 -10 -124 -10 -185 -1
-109 17 -267 22 -338 12z"/>
</g>
</svg>
