<?xml version="1.0" standalone="no"?>
<!DOCTYPE svg PUBLIC "-//W3C//DTD SVG 20010904//EN"
 "http://www.w3.org/TR/2001/REC-SVG-20010904/DTD/svg10.dtd">
<svg version="1.0" xmlns="http://www.w3.org/2000/svg"
 width="100.000000pt" height="100.000000pt" viewBox="0 0 100.000000 100.000000"
 preserveAspectRatio="xMidYMid meet">

<g transform="translate(0.000000,100.000000) scale(0.100000,-0.100000)"
fill="#000000" stroke="none">
<path d="M781 976 c-20 -21 -26 -23 -42 -13 -16 10 -24 7 -51 -20 -26 -27 -29
-34 -19 -47 18 -22 4 -38 -28 -31 -21 4 -33 -1 -55 -24 -25 -26 -27 -33 -16
-46 12 -14 2 -27 -70 -100 -83 -84 -85 -85 -125 -78 -32 4 -54 19 -111 74 -40
38 -77 69 -84 69 -19 0 -54 -21 -72 -44 -32 -38 -22 -64 52 -140 38 -40 70
-80 70 -89 0 -15 -44 -57 -60 -57 -4 0 -16 17 -25 37 -23 50 -44 73 -66 73
-29 0 -79 -49 -79 -77 0 -27 36 -93 50 -93 5 0 14 -9 20 -20 9 -16 7 -26 -9
-47 -39 -48 -30 -68 82 -180 133 -133 129 -133 256 -8 63 61 105 95 119 95 28
0 108 77 117 112 4 17 1 39 -9 60 l-17 32 82 82 c70 70 86 82 108 78 37 -8 81
38 64 66 -17 26 9 49 33 30 13 -11 20 -9 47 18 26 27 30 35 20 50 -9 14 -6 22
15 45 l26 27 -94 95 c-52 52 -97 95 -101 95 -3 0 -16 -11 -28 -24z m48 -40 c9
-10 8 -16 -4 -26 -21 -17 -51 6 -34 26 6 8 15 14 19 14 4 0 13 -6 19 -14z m85
-215 c-6 -7 -194 181 -194 194 0 5 45 -35 100 -90 54 -54 97 -101 94 -104z
m-29 159 c4 -6 1 -17 -5 -26 -10 -11 -16 -12 -26 -3 -11 9 -11 15 -3 25 14 17
25 18 34 4z m-156 -44 c9 -10 8 -16 -4 -26 -19 -16 -41 1 -32 24 8 20 21 20
36 2z m217 -35 c-9 -14 -33 -14 -41 -1 -4 6 -1 18 6 26 11 13 14 13 27 0 8 -8
11 -19 8 -25z m-216 -76 c52 -52 91 -98 87 -102 -8 -7 -197 175 -197 189 0 19
21 2 110 -87z m55 55 c4 -6 1 -17 -5 -26 -10 -11 -16 -12 -26 -3 -11 9 -11 15
-3 25 14 17 25 18 34 4z m-157 -43 c9 -10 -9 -33 -77 -101 -78 -78 -89 -85
-101 -71 -12 14 -3 27 71 101 46 46 86 84 90 84 4 0 11 -6 17 -13z m218 -36
c-9 -14 -33 -14 -41 -1 -4 6 -1 18 6 26 11 13 14 13 27 0 8 -8 11 -19 8 -25z
m-608 -44 l63 -63 -26 -24 -25 -24 -60 59 c-33 33 -60 64 -60 69 0 11 30 46
39 46 4 0 35 -28 69 -63z m449 17 c2 -5 -35 -47 -82 -94 -67 -67 -87 -82 -97
-72 -10 10 5 30 72 97 79 80 99 93 107 69z m-19 -151 c-76 -76 -89 -85 -103
-73 -14 12 -7 23 72 102 78 78 89 86 103 73 13 -14 5 -25 -72 -102z m-176 -51
c59 -60 108 -116 108 -125 0 -10 -16 -35 -36 -57 -57 -63 -72 -58 -190 63 -56
56 -104 110 -107 120 -8 23 67 107 96 107 12 0 62 -42 129 -108z m-392 -7 c0
-8 11 -27 25 -43 24 -28 24 -30 6 -46 -17 -16 -20 -14 -55 24 -41 45 -43 56
-19 82 12 14 19 15 30 7 7 -6 13 -17 13 -24z m268 -322 c-46 -46 -89 -83 -97
-83 -18 0 -179 157 -187 183 -5 15 13 38 77 103 l84 84 102 -102 103 -103 -82
-82z"/>
</g>
</svg>
